<svg version="1.1" id="Layer_1" xmlns="http://www.w3.org/2000/svg" xmlns:xlink="http://www.w3.org/1999/xlink" x="0px" y="0px" enable-background="new 0 0 1000 1000" xml:space="preserve" viewBox="55.27 435.68 878.73 134.55">
<g>
	<g>
		<g>
			
				<linearGradient id="SVGID_1_" gradientUnits="userSpaceOnUse" x1="80.4658" y1="876.0343" x2="192.7505" y2="763.7495" gradientTransform="matrix(1.1111 0 0 -1.1111 -3.051758e-005 1388.8889)">
				<stop offset="0.25" style="stop-color:#0083FF"/>
				<stop offset="0.3109" style="stop-color:#1879F2"/>
				<stop offset="0.4398" style="stop-color:#565ECF"/>
				<stop offset="0.6245" style="stop-color:#B83399"/>
				<stop offset="0.75" style="stop-color:#FF1572"/>
			</linearGradient>
			<path fill="url(#SVGID_1_)" d="M170.7,475.4h-17.6c-2.1,0-3.8,1.7-3.8,3.8v17.6c0,2.1,1.7,3.8,3.8,3.8h16.2c1,0,1.9,0.4,2.7,1.1     l5.7,5.7c0.7,0.7,1.1,1.7,1.1,2.7v10.8c0,2.1,1.7,3.8,3.8,3.8h12.1c2.1,0,3.8-1.7,3.8-3.8v-12.1c0-2.1-1.7-3.8-3.8-3.8h-10.8     c-1,0-1.9-0.4-2.7-1.1l-5.7-5.7c-0.7-0.7-1.1-1.7-1.1-2.7v-16.2C174.4,477.1,172.8,475.4,170.7,475.4z"/>
			
				<linearGradient id="SVGID_2_" gradientUnits="userSpaceOnUse" x1="34.3158" y1="829.8843" x2="146.6005" y2="717.5995" gradientTransform="matrix(1.1111 0 0 -1.1111 -3.051758e-005 1388.8889)">
				<stop offset="0.25" style="stop-color:#0083FF"/>
				<stop offset="0.3109" style="stop-color:#1879F2"/>
				<stop offset="0.4398" style="stop-color:#565ECF"/>
				<stop offset="0.6245" style="stop-color:#B83399"/>
				<stop offset="0.75" style="stop-color:#FF1572"/>
			</linearGradient>
			<path fill="url(#SVGID_2_)" d="M126.3,551.9l-4.7-4.7c-0.7-0.7-1.1-1.7-1.1-2.7v-13.4c0-2.1-1.7-3.9-3.9-3.9h-14.2     c-2.1,0-3.9,1.7-3.9,3.9v14.2c0,2.1,1.7,3.9,3.9,3.9h13.4c1,0,2,0.4,2.7,1.1l4.7,4.7c0.7,0.7,1.1,1.7,1.1,2.7v8.6     c0,2.1,1.7,3.9,3.9,3.9h9.4c2.1,0,3.9-1.7,3.9-3.9v-9.4c0-2.1-1.7-3.9-3.9-3.9h-8.6C128.1,553,127.1,552.7,126.3,551.9z"/>
			<g>
				
					<linearGradient id="SVGID_3_" gradientUnits="userSpaceOnUse" x1="59.3657" y1="854.9343" x2="171.6505" y2="742.6495" gradientTransform="matrix(1.1111 0 0 -1.1111 -3.051758e-005 1388.8889)">
					<stop offset="0.25" style="stop-color:#0083FF"/>
					<stop offset="0.3109" style="stop-color:#1879F2"/>
					<stop offset="0.4398" style="stop-color:#565ECF"/>
					<stop offset="0.6245" style="stop-color:#B83399"/>
					<stop offset="0.75" style="stop-color:#FF1572"/>
				</linearGradient>
				<path fill="url(#SVGID_3_)" d="M136.4,517.3v16c0,3.3,2.7,6.1,6.1,6.1h17.9c3.3,0,6.1-2.7,6.1-6.1v-17.8c0-3.3-2.7-6.1-6.1-6.1      h-16c-1.6,0-3.1-0.7-4.3-1.8l-8.6-8.6c-1.1-1.1-1.8-2.7-1.8-4.3v-24.4c0-3.3-2.7-6.1-6.1-6.1H97.3c-3.3,0-6.1,2.7-6.1,6.1v26.3      c0,3.3,2.7,6.1,6.1,6.1h24.4c1.6,0,3.1,0.7,4.3,1.8l8.6,8.6C135.8,514.2,136.4,515.8,136.4,517.3z"/>
			</g>
			<g>
				
					<linearGradient id="SVGID_4_" gradientUnits="userSpaceOnUse" x1="91.0157" y1="886.5842" x2="203.3005" y2="774.2996" gradientTransform="matrix(1.1111 0 0 -1.1111 -3.051758e-005 1388.8889)">
					<stop offset="0.25" style="stop-color:#0083FF"/>
					<stop offset="0.3109" style="stop-color:#1879F2"/>
					<stop offset="0.4398" style="stop-color:#565ECF"/>
					<stop offset="0.6245" style="stop-color:#B83399"/>
					<stop offset="0.75" style="stop-color:#FF1572"/>
				</linearGradient>
				<path fill="url(#SVGID_4_)" d="M161.7,462.3v-15.6c0-1.1-0.9-2-2-2h-15.6c-1.1,0-2,0.9-2,2v15.6c0,1.1,0.9,2,2,2h15.6      C160.8,464.3,161.7,463.4,161.7,462.3z"/>
			</g>
			
				<linearGradient id="SVGID_5_" gradientUnits="userSpaceOnUse" x1="60.1658" y1="855.7343" x2="172.4505" y2="743.4495" gradientTransform="matrix(1.1111 0 0 -1.1111 -3.051758e-005 1388.8889)">
				<stop offset="0.25" style="stop-color:#0083FF"/>
				<stop offset="0.3109" style="stop-color:#1879F2"/>
				<stop offset="0.4398" style="stop-color:#565ECF"/>
				<stop offset="0.6245" style="stop-color:#B83399"/>
				<stop offset="0.75" style="stop-color:#FF1572"/>
			</linearGradient>
			<path fill="url(#SVGID_5_)" d="M88.6,457.4v-18.2c0-1.2-1-2.3-2.3-2.3H68c-1.2,0-2.3,1-2.3,2.3v18.2c0,1.2,1,2.3,2.3,2.3h18.2     C87.4,459.8,88.6,458.8,88.6,457.4z"/>
			
				<linearGradient id="SVGID_6_" gradientUnits="userSpaceOnUse" x1="83.9158" y1="879.4843" x2="196.2005" y2="767.1995" gradientTransform="matrix(1.1111 0 0 -1.1111 -3.051758e-005 1388.8889)">
				<stop offset="0.25" style="stop-color:#0083FF"/>
				<stop offset="0.3109" style="stop-color:#1879F2"/>
				<stop offset="0.4398" style="stop-color:#565ECF"/>
				<stop offset="0.6245" style="stop-color:#B83399"/>
				<stop offset="0.75" style="stop-color:#FF1572"/>
			</linearGradient>
			<path fill="url(#SVGID_6_)" d="M132.2,448.8v-11c0-1-0.9-1.9-1.9-1.9h-11c-1,0-1.9,0.9-1.9,1.9v11c0,1,0.9,1.9,1.9,1.9h11     C131.3,450.7,132.2,449.8,132.2,448.8z"/>
			
				<linearGradient id="SVGID_7_" gradientUnits="userSpaceOnUse" x1="39.9657" y1="835.5342" x2="152.2505" y2="723.2496" gradientTransform="matrix(1.1111 0 0 -1.1111 -3.051758e-005 1388.8889)">
				<stop offset="0.25" style="stop-color:#0083FF"/>
				<stop offset="0.3109" style="stop-color:#1879F2"/>
				<stop offset="0.4398" style="stop-color:#565ECF"/>
				<stop offset="0.6245" style="stop-color:#B83399"/>
				<stop offset="0.75" style="stop-color:#FF1572"/>
			</linearGradient>
			<path fill="url(#SVGID_7_)" d="M55.3,473.1v6.1c0,0.9,0.8,1.7,1.7,1.7h6.1c0.9,0,1.7-0.8,1.7-1.7v-6.1c0-0.9-0.8-1.7-1.7-1.7H57     C56.1,471.4,55.3,472.2,55.3,473.1z"/>
			<g>
				
					<linearGradient id="SVGID_8_" gradientUnits="userSpaceOnUse" x1="66.7253" y1="862.2938" x2="179.01" y2="750.009" gradientTransform="matrix(1.1111 0 0 -1.1111 -3.051758e-005 1388.8889)">
					<stop offset="0.25" style="stop-color:#0083FF"/>
					<stop offset="0.3109" style="stop-color:#1879F2"/>
					<stop offset="0.4398" style="stop-color:#565ECF"/>
					<stop offset="0.6245" style="stop-color:#B83399"/>
					<stop offset="0.75" style="stop-color:#FF1572"/>
				</linearGradient>
				<path fill="url(#SVGID_8_)" d="M186.9,535.8h-6.1c-0.9,0-1.7,0.8-1.7,1.7v6.1c0,0.9,0.8,1.7,1.7,1.7h6.1c0.9,0,1.7-0.8,1.7-1.7      v-6.1C188.6,536.6,187.9,535.8,186.9,535.8z"/>
			</g>
			
				<linearGradient id="SVGID_9_" gradientUnits="userSpaceOnUse" x1="31.5157" y1="827.0843" x2="143.8005" y2="714.7995" gradientTransform="matrix(1.1111 0 0 -1.1111 -3.051758e-005 1388.8889)">
				<stop offset="0.25" style="stop-color:#0083FF"/>
				<stop offset="0.3109" style="stop-color:#1879F2"/>
				<stop offset="0.4398" style="stop-color:#565ECF"/>
				<stop offset="0.6245" style="stop-color:#B83399"/>
				<stop offset="0.75" style="stop-color:#FF1572"/>
			</linearGradient>
			<path fill="url(#SVGID_9_)" d="M87.9,515h-6.1c-0.9,0-1.7,0.8-1.7,1.7v6.1c0,0.9,0.8,1.7,1.7,1.7h6.1c0.9,0,1.7-0.8,1.7-1.7v-6.1     C89.4,515.7,88.8,515,87.9,515z"/>
			<g>
				
					<linearGradient id="SVGID_10_" gradientUnits="userSpaceOnUse" x1="36.1657" y1="831.7343" x2="148.4505" y2="719.4495" gradientTransform="matrix(1.1111 0 0 -1.1111 -3.051758e-005 1388.8889)">
					<stop offset="0.25" style="stop-color:#0083FF"/>
					<stop offset="0.3109" style="stop-color:#1879F2"/>
					<stop offset="0.4398" style="stop-color:#565ECF"/>
					<stop offset="0.6245" style="stop-color:#B83399"/>
					<stop offset="0.75" style="stop-color:#FF1572"/>
				</linearGradient>
				<path fill="url(#SVGID_10_)" d="M63.3,490.3v11.9c0,1.3,1.1,2.4,2.4,2.4h11.9c1.3,0,2.4-1.1,2.4-2.4v-11.9      c0-1.3-1.1-2.4-2.4-2.4H65.8C64.4,488,63.3,489,63.3,490.3z"/>
			</g>
		</g>
	</g>
	<g>
		<g>
			<g>
				<g>
					<path d="M788.2,481.8v50.9c0,0.8-0.3,1.1-1.1,1.1h-3.8c-0.8,0-1.1-0.3-1.1-1.1v-50.9c0-0.8,0.3-1.1,1.1-1.1h3.7       C787.9,480.6,788.2,481,788.2,481.8z"/>
					<path d="M805.8,533.8h-3.7c-0.8,0-1.1-0.3-1.1-1.1v-39.9c0-0.8,0.3-1.1,1.1-1.1h3.7c0.8,0,1.1,0.3,1.1,1.1v3.2h0.3       c1.3-2.9,4.2-4.3,8.4-4.3h4.7c3.8,0,6.7,1.1,8.8,3.2s3.1,5.1,3.1,9v28.8c0,0.8-0.3,1.1-1.1,1.1h-3.7c-0.8,0-1.1-0.3-1.1-1.1       v-28.6c0-4.8-2.3-7.2-7-7.2h-4.7c-2.4,0-4.3,0.7-5.7,2c-1.3,1.3-2,3.2-2,5.7v28.1C806.9,533.3,806.6,533.8,805.8,533.8z"/>
					<path d="M859.2,533.8h-4.9c-3.8,0-6.7-1.1-8.8-3.2c-2.1-2.1-3.1-5.1-3.1-9v-17.7c0-3.9,1-6.9,3.1-9c2.1-2.1,5-3.2,8.8-3.2h4.9       c4.3,0,7.1,1.4,8.6,4.3h0.3v-19.2c0-0.8,0.3-1.1,1.1-1.1h3.8c0.7,0,1.1,0.3,1.1,1.1v55.8c0,0.8-0.3,1.1-1.1,1.1h-3.8       c-0.7,0-1.1-0.3-1.1-1.1v-3.2h-0.3C866.3,532.3,863.4,533.8,859.2,533.8z M868,520.9v-16.4c0-2.4-0.7-4.3-2-5.7       c-1.3-1.3-3.2-2-5.7-2h-5c-4.6,0-6.9,2.4-6.9,7.2v17.2c0,4.8,2.3,7.2,6.9,7.2h5c2.4,0,4.3-0.7,5.7-2       C867.3,525.1,868,523.2,868,520.9z"/>
					<path d="M885.8,484.7v-7.8c0-0.8,0.3-1.1,1.1-1.1h3.8c0.8,0,1.1,0.3,1.1,1.1v7.8c0,0.8-0.3,1.1-1.1,1.1h-3.8       C886.1,485.8,885.8,485.4,885.8,484.7z M885.8,532.6v-39.9c0-0.8,0.3-1.1,1.1-1.1h3.8c0.8,0,1.1,0.3,1.1,1.1v39.9       c0,0.8-0.3,1.1-1.1,1.1H887C886.2,533.8,885.8,533.3,885.8,532.6z"/>
					<path d="M919.3,533.8H915c-3.8,0-6.8-1.1-9-3.2c-2.2-2.1-3.2-5.1-3.2-9v-17.7c0-3.9,1.1-6.9,3.2-9c2.2-2.1,5.2-3.2,9-3.2h17.9       c0.8,0,1.1,0.3,1.1,1.1v39.9c0,0.8-0.3,1.1-1.1,1.1h-3.7c-0.8,0-1.1-0.3-1.1-1.1v-3.2h-0.3       C926.4,532.3,923.6,533.8,919.3,533.8z M928.1,520.9v-23.2c0-0.4-0.2-0.8-0.8-0.8h-11.6c-4.6,0-6.9,2.4-6.9,7.2v17.2       c0,4.8,2.3,7.2,6.9,7.2h4.7c2.4,0,4.3-0.7,5.7-2C927.4,525.2,928.1,523.2,928.1,520.9z"/>
				</g>
			</g>
		</g>
		<g>
			<path d="M320.9,533.8h-3.1c-7,0-12.4-1.9-16.2-5.6s-5.7-9.1-5.7-16.1v-24.4c0-7,1.9-12.3,5.7-16.1c3.8-3.7,9.2-5.6,16.2-5.6h30.7     c2,0,2.9,0.9,2.9,2.8V531c0,1.9-1,2.8-2.9,2.8h-11.1c-1.9,0-2.8-0.9-2.8-2.8v-4.3H334c-1,2.4-2.7,4.2-5.2,5.3     C326.3,533.1,323.7,533.8,320.9,533.8z M334.4,509v-27c0-1-0.6-1.4-1.6-1.4h-12.4c-2.9,0-4.8,0.6-6,1.8c-1.1,1.2-1.8,3.2-1.8,6     v22.9c0,2.9,0.6,4.9,1.8,6c1.1,1.2,3.1,1.8,6,1.8h4.9C331.4,519.1,334.4,515.8,334.4,509z"/>
			<path d="M367.4,480.6h-5.3c-1.1,0-1.8-0.2-2.2-0.6c-0.4-0.3-0.6-1.1-0.6-2.1v-9.2c0-1.9,0.9-2.8,2.8-2.8h5.3c1,0,1.4-0.4,1.4-1.4     v-12.7c0-1.9,1-2.8,2.9-2.8h11.1c1.9,0,2.8,0.9,2.8,2.8v12.7c0,1,0.6,1.4,1.6,1.4h10.3c1.9,0,2.8,0.9,2.8,2.8v9.2     c0,1-0.2,1.7-0.6,2.1c-0.4,0.4-1.1,0.6-2.2,0.6h-10.3c-1.1,0-1.6,0.4-1.6,1.4v29.3c0,2.8,0.7,4.7,1.9,5.9s3.2,1.8,6.1,1.8h5.3     c1.9,0,2.8,0.9,2.8,2.8v9.2c0,1-0.2,1.7-0.6,2.1c-0.3,0.4-1.1,0.6-2.2,0.6h-8.1c-7,0-12.4-1.9-16.3-5.6c-3.9-3.7-5.8-9-5.8-16     V482C368.9,481.1,368.4,480.6,367.4,480.6z"/>
			<path d="M436.7,533.8h-3.2c-7,0-12.4-1.9-16.2-5.6s-5.7-9.1-5.7-16.1v-24.4c0-7,1.9-12.3,5.7-16.1c3.8-3.7,9.2-5.6,16.2-5.6h30.7     c2,0,2.9,0.9,2.9,2.8V531c0,1.9-1,2.8-2.9,2.8H453c-1.9,0-2.8-0.9-2.8-2.8v-4.3h-0.6c-1,2.4-2.7,4.2-5.2,5.3     C442,533.1,439.4,533.8,436.7,533.8z M450.2,509v-27c0-1-0.6-1.4-1.6-1.4h-12.4c-2.9,0-4.8,0.6-6,1.8c-1.1,1.2-1.8,3.2-1.8,6     v22.9c0,2.9,0.6,4.9,1.8,6c1.1,1.2,3.1,1.8,6,1.8h4.9C447.1,519.1,450.2,515.8,450.2,509z"/>
			<path fill="#0083FF" d="M478.8,466h11.7c1.8,0,2.9,0.9,3.2,2.8l11.4,50h0.9l11.1-50c0.3-1.9,1.4-2.8,3.3-2.8h11.8     c1.9,0,2.6,0.9,2,2.8l-16.8,62.1c-0.3,2-1.6,2.9-3.6,2.9H497c-1.9,0-3.1-1-3.6-2.9l-16.6-62.1C476.2,466.9,476.9,466,478.8,466z"/>
			<path fill="#0083FF" d="M593.9,533.8h-29.4c-7,0-12.4-1.9-16.2-5.6s-5.7-9.1-5.7-16.1v-24.4c0-7,1.9-12.3,5.7-16.1     c3.8-3.7,9.2-5.6,16.2-5.6h10.4c7,0,12.4,1.9,16.2,5.6c3.8,3.7,5.7,9.1,5.7,16.1v16.9c0,1.9-0.9,2.8-2.8,2.8h-33.3     c-1.1,0-1.6,0.4-1.6,1.4v2.9c0,2.8,0.6,4.7,1.8,5.9s3.2,1.8,6,1.8h26.9c1.9,0,2.8,1,2.8,2.9v8.8c0,1-0.2,1.7-0.6,2.1     C595.7,533.6,594.9,533.8,593.9,533.8z M560.8,496h18.1c1,0,1.4-0.4,1.4-1.4v-6.3c0-2.9-0.6-4.8-1.8-6c-1.1-1.1-3.1-1.8-6-1.8     H567c-2.9,0-4.8,0.6-6,1.8c-1.1,1.1-1.8,3.1-1.8,6v6.3C559.3,495.6,559.8,496,560.8,496z"/>
			<path fill="#0083FF" d="M623.7,533.8h-11.3c-1.9,0-2.8-0.9-2.8-2.8v-62.2c0-1.9,0.9-2.8,2.8-2.8h11.3c1.9,0,2.8,0.9,2.8,2.8v4.6     h0.6c1-2.4,2.7-4.2,5.2-5.4c2.4-1.2,5.1-1.9,7.9-1.9h4.8c1.8,0,2.7,0.9,2.7,2.8v9.2c0,1.1-0.2,1.8-0.6,2.2     c-0.4,0.4-1.1,0.6-2.1,0.4h-9.3c-6.1,0-9.2,3.4-9.2,10.3v40C626.4,532.8,625.4,533.8,623.7,533.8z"/>
			<path fill="#0083FF" d="M681.6,533.8h-25.2c-1.8,0-2.7-0.9-2.7-2.8v-8.6c0-1,0.2-1.7,0.6-2.1c0.3-0.4,1.1-0.6,2.1-0.6h22.2     c4.3,0,6.6-1.3,6.6-4v-0.7c0-2.1-1.8-4.1-5.4-6.1l-13.1-7.3c-4.6-2.3-7.9-4.8-10-7.4c-2.1-2.7-3.2-6.1-3.2-10.2     c0-6.2,1.7-10.8,4.9-13.7c3.2-2.9,8.4-4.3,15.4-4.3h22.2c1.8,0,2.7,0.9,2.7,2.8v8.7c0,1-0.2,1.7-0.6,2.1     c-0.3,0.4-1.1,0.6-2.1,0.6h-18.4c-4.3,0-6.6,1.1-6.6,3.3v0.7c0,2,1.9,3.9,5.7,6l13.4,8c4.6,2.4,7.9,5,9.7,7.7     c1.9,2.7,2.8,6,2.8,10.3C702.4,527.8,695.4,533.8,681.6,533.8z"/>
			<path fill="#0083FF" d="M764.1,533.8h-29.3c-7,0-12.4-1.9-16.2-5.6c-3.8-3.7-5.7-9.1-5.7-16.1v-24.4c0-7,1.9-12.3,5.7-16.1     c3.8-3.7,9.2-5.6,16.2-5.6h10.4c7,0,12.4,1.9,16.2,5.6c3.8,3.7,5.7,9.1,5.7,16.1v16.9c0,1.9-0.9,2.8-2.8,2.8H731     c-1.1,0-1.6,0.4-1.6,1.4v2.9c0,2.8,0.6,4.7,1.8,5.9c1.2,1.2,3.2,1.8,6,1.8h26.9c1.9,0,2.8,1,2.8,2.9v8.8c0,1-0.2,1.7-0.6,2.1     C765.9,533.6,765.1,533.8,764.1,533.8z M731,496h18.1c1,0,1.4-0.4,1.4-1.4v-6.3c0-2.9-0.6-4.8-1.8-6c-1.1-1.1-3.1-1.8-6-1.8h-5.6     c-2.9,0-4.8,0.6-6,1.8c-1.1,1.1-1.8,3.1-1.8,6v6.3C729.6,495.6,730,496,731,496z"/>
		</g>
		<g>
			<g>
				<path d="M282.1,454c-3.9-3.8-9.2-5.7-16.1-5.7h-15.4c0.1,0.3,0.1,0.7,0.1,1v13.6h12.6c2.9,0,4.9,0.6,6,1.8      c1.2,1.2,1.8,3.2,1.8,6v40.6c0,2.9-0.6,4.9-1.8,6c-1.2,1.2-3.2,1.8-6,1.8h-14.4c-1,0-1.4-0.4-1.4-1.4v-50      c-0.3,0.1-0.8,0.1-1.1,0.1h-14c-0.7,0-1.2-0.1-1.8-0.3v63.4c0,1.9,0.9,2.8,2.8,2.8H266c6.9,0,12.3-1.9,16.1-5.7      c3.9-3.8,5.8-9.1,5.8-16V470C287.9,463,286,457.7,282.1,454z"/>
			</g>
		</g>
		
			<linearGradient id="SVGID_11_" gradientUnits="userSpaceOnUse" x1="197.5971" y1="857.7029" x2="206.2596" y2="849.0405" gradientTransform="matrix(1.1111 0 0 -1.1111 -3.051758e-005 1388.8889)">
			<stop offset="0" style="stop-color:#1B83FF"/>
			<stop offset="0.1345" style="stop-color:#3377F0"/>
			<stop offset="0.4191" style="stop-color:#7159CA"/>
			<stop offset="0.8274" style="stop-color:#D32A8D"/>
			<stop offset="1" style="stop-color:#FF1572"/>
		</linearGradient>
		<path fill="url(#SVGID_11_)" d="M229.4,444.8v-8.1c0-0.6-0.4-1-1-1h-8.1c-0.6,0-1,0.4-1,1v8.1c0,0.6,0.4,1,1,1h8.1    C229,445.8,229.4,445.3,229.4,444.8z"/>
		
			<linearGradient id="SVGID_12_" gradientUnits="userSpaceOnUse" x1="207.6024" y1="846.9786" x2="222.9314" y2="831.6497" gradientTransform="matrix(1.1111 0 0 -1.1111 -3.051758e-005 1388.8889)">
			<stop offset="0" style="stop-color:#1B83FF"/>
			<stop offset="0.1345" style="stop-color:#3377F0"/>
			<stop offset="0.4191" style="stop-color:#7159CA"/>
			<stop offset="0.8274" style="stop-color:#D32A8D"/>
			<stop offset="1" style="stop-color:#FF1572"/>
		</linearGradient>
		<path fill="url(#SVGID_12_)" d="M246.3,447.2H232c-1.1,0-1.9,0.9-1.9,1.9v14.3c0,1.1,0.9,1.9,1.9,1.9h14.3c1.1,0,1.9-0.9,1.9-1.9    v-14.3C248.2,448.1,247.3,447.2,246.3,447.2z"/>
	</g>
</g>
</svg>